inDegrees=yes
name=ik_S53_A11_T01
DataType=double
version=3
OpenSimVersion=4.3-2021-08-27-4bc7ad9
endheader
time	pelvis_tilt	pelvis_list	pelvis_rotation	pelvis_tx	pelvis_ty	pelvis_tz	hip_flexion_r	hip_adduction_r	hip_rotation_r	knee_angle_r	knee_angle_r_beta	ankle_angle_r	subtalar_angle_r	mtp_angle_r	hip_flexion_l	hip_adduction_l	hip_rotation_l	knee_angle_l	knee_angle_l_beta	ankle_angle_l	subtalar_angle_l	mtp_angle_l	lumbar_extension	lumbar_bending	lumbar_rotation	arm_flex_r	arm_add_r	arm_rot_r	elbow_flex_r	pro_sup_r	wrist_flex_r	wrist_dev_r	arm_flex_l	arm_add_l	arm_rot_l	elbow_flex_l	pro_sup_l	wrist_flex_l	wrist_dev_l
0	0	0	0	0	0.9399999999999999	0	0	0	0	0	0	0	0	0	0	0	0	0	0	0	0	0	0	0	0	0	0	0	0	89.99999999963507	0	0	0	0	0	0	89.99999999869995	0	0
0.02	-1.221844225040642	-0.7957036171221555	34.71001729595429	0	0.9399999999999999	0	1.376624846905827	-0.6519810051083027	-0.461990356745606	2.15098313681006	0.03754173789221119	0	0	0	1.376624846905827	-0.6519810051083027	-0.461990356745606	2.15098313681006	0.03754173789221119	0	0	0	-0.44682110703957	-0.4731942637628506	16.1333369403321	9.163926818915368	-2.71145854609454	-8.737081090071204	2.574741007934632	126.9811089385851	0	0	6.773364528199305	-2.189031838148599	-9.774924530761272	5.670390617940939	111.5646956541805	0	0
0.04	-1.208049858759782	-0.8078772229037527	35.12523621304821	0	0.9399999999999999	0	3.273297354772638	-1.532970050767294	-1.152835547528239	4.057481363051757	0.07081640912356055	0	0	0	3.273297354772638	-1.532970050767294	-1.152835547528239	4.057481363051757	0.07081640912356055	0	0	0	-0.4748150112542494	-0.4722646646747464	15.72045323751136	9.174935263300382	-2.693691317046382	-8.72891708316417	2.580246865664301	126.9579896430285	0	0	6.78473088566269	-2.209389724966619	-9.74695547863316	5.676460561883377	111.5439876227223	0	0
0.06	-1.19796070306101	-0.8049107748692724	35.17319817498277	0	0.9399999999999999	0	3.616274140908797	-1.676885385026324	-1.275660022312346	4.313776203602878	0.07528959794705151	0	0	0	3.616274140908797	-1.676885385026324	-1.275660022312346	4.313776203602878	0.07528959794705151	0	0	0	-0.4710636102409717	-0.4736417221960598	15.65667033922334	9.158475814036091	-2.684258133622243	-8.695188407324419	2.574519429401819	126.9469088235517	0	0	6.760421788461278	-2.219977687147688	-9.752297900197554	5.67616993783319	111.5603681797836	0	0
0.08	-1.184246653618992	-0.8111126152640981	35.50631721844562	0	0.9399999999999999	0	5.396126215143976	-2.432451703630766	-1.900415206613962	5.935059268642747	0.1035863255388226	0	0	0	5.396126215143976	-2.432451703630766	-1.900415206613962	5.935059268642747	0.1035863255388226	0	0	0	-0.4940434773563427	-0.4640573538353719	15.31761120031791	9.162083888799568	-2.686067784673095	-8.70618805638834	2.556104691044256	126.9925506648813	0	0	6.780441857475764	-2.244414419266472	-9.772041516655435	5.656814249578385	111.6006650416569	0	0
0.1	-1.180541619167995	-0.806803142166426	35.690919436627	0	0.9399999999999999	0	6.504943043826094	-2.896884549236526	-2.279073803098312	7.021614421362862	0.1225502904582984	0	0	0	6.504943043826094	-2.896884549236526	-2.279073803098312	7.021614421362862	0.1225502904582984	0	0	0	-0.5044294758225336	-0.4759334817106909	15.1378946097272	9.171524934691274	-2.687178306383785	-8.694024899769591	2.568781153691657	126.9937729143541	0	0	6.770934215780047	-2.250987858628426	-9.767189636938641	5.665889166040946	111.5985886707441	0	0
0.12	-1.166175413241553	-0.8097893104894996	35.84600424202626	0	0.9399999999999999	0	7.493867917015568	-3.297607304399345	-2.611016562427203	7.99716432735366	0.139576848335359	0	0	0	7.493867917015568	-3.297607304399345	-2.611016562427203	7.99716432735366	0.139576848335359	0	0	0	-0.5178704035586684	-0.4834121276090112	14.97825997483678	9.163620766867369	-2.684114902444125	-8.681408360040228	2.573940481980447	126.9760403333449	0	0	6.776551410501628	-2.269774115559431	-9.775781162986462	5.667839773256961	111.5873233729994	0	0
0.14	-1.167934368791165	-0.8182065520177125	35.87066324009094	0	0.9399999999999999	0	7.636106259294374	-3.3505732123954	-2.657889495487832	8.125073099315541	0.1418092775482764	0	0	0	7.636106259294374	-3.3505732123954	-2.657889495487832	8.125073099315541	0.1418092775482764	0	0	0	-0.5264045549346252	-0.4882058487724849	14.95567766043111	9.171382889693927	-2.680461600644684	-8.661108179981129	2.570651271561526	126.9668262280325	0	0	6.793821353539505	-2.264621052555879	-9.760732647460662	5.670589419534094	111.5849226715024	0	0
0.16	-1.167978106242563	-0.8430700505010766	35.89039441761592	0	0.9399999999999999	0	7.745805826105344	-3.393293360558334	-2.694221527267173	8.230206909848141	0.1436442086972382	0	0	0	7.745805826105344	-3.393293360558334	-2.694221527267173	8.230206909848141	0.1436442086972382	0	0	0	-0.5428547916455483	-0.5072334413411217	14.93764830640144	9.202391464101657	-2.656737584709723	-8.666154393620712	2.587032819514302	127.0052438079497	0	0	6.836500310711487	-2.300387193171127	-9.759435174522539	5.621926641222894	111.5986560653809	0	0
0.18	-1.165486948809632	-0.8443308366280036	35.94551169173092	0	0.9399999999999999	0	8.057185989276727	-3.508850747683002	-2.796302357390922	8.515876302982505	0.1486300801796069	0	0	0	8.057185989276727	-3.508850747683002	-2.796302357390922	8.515876302982505	0.1486300801796069	0	0	0	-0.5466310684622911	-0.5081422189137093	14.89302624466672	9.210374608660038	-2.656696975058523	-8.646387234640908	2.567805868747759	126.9263757144178	0	0	6.82324785023607	-2.291952924310748	-9.70580957900815	5.661706187530771	111.5282064709939	0	0
0.2	-1.156618168393194	-0.8505564082769109	36.11046403909739	0	0.9399999999999999	0	8.958985446864389	-3.855986652069089	-3.091342559498301	9.411353315859284	0.1642591024302304	0	0	0	8.958985446864389	-3.855986652069089	-3.091342559498301	9.411353315859284	0.1642591024302304	0	0	0	-0.5625586757893539	-0.5085552919997055	14.72963976218199	9.198400479200762	-2.655147010585033	-8.681307897080217	2.591479504794115	127.022766637163	0	0	6.829714658616937	-2.275202063232129	-9.716145832467172	5.642846596664499	111.5628155942395	0	0
0.22	-1.150051461882653	-0.8514745822740156	36.25312570660979	0	0.9399999999999999	0	9.790045835370258	-4.1711855413347	-3.359858240476467	10.25489895861448	0.1789817512871604	0	0	0	9.790045835370258	-4.1711855413347	-3.359858240476467	10.25489895861448	0.1789817512871604	0	0	0	-0.5668139149832107	-0.5161323008435181	14.58020173866306	9.18558387697556	-2.646684363310313	-8.659430407813556	2.594615909080332	126.9543613487317	0	0	6.807149417117683	-2.273942704804388	-9.719125268710192	5.664217473319147	111.5463227667414	0	0
0.24	-1.154080401686839	-0.871244040546641	36.39954591629038	0	0.9399999999999999	0	10.55388029402989	-4.448078625698584	-3.60221204153376	11.0249377261246	0.1924214631482112	0	0	0	10.55388029402989	-4.448078625698584	-3.60221204153376	11.0249377261246	0.1924214631482112	0	0	0	-0.5975141700439964	-0.5206914808582012	14.43376105421936	9.232464036391237	-2.642816344016564	-8.678599523107868	2.571535771231925	127.0181079748247	0	0	6.866409415305151	-2.259889969646199	-9.729296478770404	5.618345839081307	111.6168657686687	0	0
0.26	-1.150726098652083	-0.8687312798552235	36.41646042697889	0	0.9399999999999999	0	10.63585252555436	-4.477530349812804	-3.628095183669616	11.10787738607527	0.1938690332948348	0	0	0	10.63585252555436	-4.477530349812804	-3.628095183669616	11.10787738607527	0.1938690332948348	0	0	0	-0.5944556254583704	-0.5200681248348029	14.4195505233352	9.193414565092931	-2.638445530882141	-8.683624776983665	2.559735878642527	127.0162689490154	0	0	6.849098346402121	-2.236339253056046	-9.736127860072546	5.625900405066723	111.6216414691947	0	0
0.28	-1.142512255091885	-0.8993827148481774	36.54203534578819	0	0.9399999999999999	0	11.26012741654743	-4.70486118918681	-3.824736605325504	11.75316799248393	0.2051314790088567	0	0	0	11.26012741654743	-4.70486118918681	-3.824736605325504	11.75316799248393	0.2051314790088567	0	0	0	-0.6173710830997445	-0.542658673655863	14.29994982878074	9.215603235108153	-2.602928333316881	-8.697125608795885	2.574461442990655	127.0096095614194	0	0	6.863681274879161	-2.264757175119709	-9.72081299762093	5.640105405830597	111.6238442267566	0	0
